<?xml version="1.0" encoding="iso-8859-1"?>
<!-- Generator: Adobe Illustrator 19.0.0, SVG Export Plug-In . SVG Version: 6.00 Build 0)  -->
<svg version="1.1" id="Capa_1" xmlns="http://www.w3.org/2000/svg" xmlns:xlink="http://www.w3.org/1999/xlink" x="0px" y="0px"
	 viewBox="0 0 450 450" style="enable-background:new 0 0 450 450;" xml:space="preserve">
<path style="fill:#FEDB41;" d="M224.2,207h-21.9v18.6c0,12.1,9.8,21.9,21.9,21.9s21.9-9.8,21.9-21.9V207H224.2z M386,132.8v267
	c0,22.1-17.9,40-40,40H184c-22.1,0-40-17.9-40-40v-267c0-22.1,17.9-40,40-40h162C368.1,92.8,386,110.7,386,132.8z M327.7,352.1V166
	c-23.2,15-37.2,40.8-37.1,68.5l0.2,46.1h14.9l-6.7,70.3c-0.7,7.9,5.2,14.9,13.1,15.6s14.9-5.2,15.6-13.1
	C327.6,352.9,327.7,352.5,327.7,352.1z"/>
<path style="fill:#00EFD1;" d="M327.7,280.5V352c0,8-6.4,14.4-14.4,14.4s-14.4-6.4-14.4-14.4c0-0.4,0-0.8,0.1-1.2l6.7-70.3H327.7z"
	/>
<path style="fill:#00ACEA;" d="M327.7,270.6v10h-36.9l-0.2-46.1c-0.1-27.6,13.9-53.4,37.1-68.5V270.6z"/>
<path style="fill:#00EFD1;" d="M306,50.2v42.5H184c-22.1,0-40,17.9-40,40v224.5h-40c-22.1,0-40-17.9-40-40v-267
	c0-22.1,17.9-40,40-40h162C288.1,10.2,306,28.2,306,50.2z"/>
<path style="fill:#00ACEA;" d="M246.1,207v18.6c0,12.1-9.8,21.9-21.9,21.9s-21.9-9.8-21.9-21.9V207H246.1z"/>
<g>
	<path style="fill:#083863;" d="M346,83h-30V50.2C316,22.6,293.6,0,266,0H104C76.4,0,54,22.7,54,50.2v267
		c0.1,27.5,22.4,49.8,49.9,49.8c0,0,0,0,0.1,0h30v32.8c0,27.6,22.4,50.2,50,50.2h162c27.6,0,50-22.7,50-50.2v-267
		C395.9,105.2,373.6,82.9,346,83L346,83z M134,132.8V347h-30c-16.5,0.1-29.9-13.2-30-29.6v-0.1v-267c0-16.6,13.4-30.1,30-30.2h162
		c16.6,0.1,30,13.6,30,30.2V83H184C156.5,82.9,134.1,105.2,134,132.8C134,132.7,134,132.7,134,132.8z M376,400c0,16.6-13.4,30-30,30
		l0,0H184c-16.6,0-30-13.4-30-30l0,0V133c0-16.6,13.4-30,30-30l0,0h162c16.6,0,30,13.4,30,30l0,0V400z"/>
	<path style="fill:#083863;" d="M246,162.1c-5.5,0-10,4.5-10,10V197h-1.9l-0.2-25c0-5.5-4.5-10-10-10h-0.1c-5.5,0.1-10,4.6-9.9,10.2
		l0,0l0.2,24.8H212v-24.9c0-5.5-4.5-10-10-10s-10,4.5-10,10v33.6c0,0.2,0,0.4,0,0.6c0,0.2,0,0.4,0,0.6v18.6
		c0.1,8.5,3.5,16.6,9.5,22.5c3.5,3.4,7.7,6.1,12.3,7.6l0.3,111.1c0,5.6,4.5,10.1,10,10.2l0,0c5.5-1,10-4.8,10-10.3L233.9,256
		c13.2-4.3,22.1-16.6,22.1-30.5V207c0-0.2,0-0.4,0-0.6c0-0.2,0-0.4,0-0.6v-33.6C256,166.6,251.5,162.1,246,162.1z M236,225.5
		c-0.1,6.5-5.3,11.8-11.8,11.9c-3.2,0-6.3-1.3-8.5-3.5c-2.3-2.2-3.6-5.2-3.6-8.4V217h24v8.5H236z"/>
	<path style="fill:#083863;" d="M332.6,157.2c-3.2-1.8-7.2-1.6-10.3,0.4c-26.1,16.8-41.9,45.8-41.7,76.9l0.2,46.3
		c0,5.5,4.4,10.1,10,10.2h3.9l-5.7,59.1l0,0c-1.1,13.4,8.8,25.2,22.2,26.3c0.7,0.1,1.4,0.1,2.1,0.1c13.6,0,24.6-10.9,24.7-24.4V166
		C337.9,162.3,335.9,158.9,332.6,157.2z M318,187.9V271h-17.3v-36.3C300.7,217.5,306.8,200.9,318,187.9z M316.5,355.2
		c-0.9,0.8-2,1.3-3.2,1.3s-2.4-0.5-3.3-1.4c-0.8-0.8-1.3-1.9-1.2-3.1l5.8-61h3.3v61.1C318,353.3,317.4,354.4,316.5,355.2
		L316.5,355.2z"/>
</g>
<g>
</g>
<g>
</g>
<g>
</g>
<g>
</g>
<g>
</g>
<g>
</g>
<g>
</g>
<g>
</g>
<g>
</g>
<g>
</g>
<g>
</g>
<g>
</g>
<g>
</g>
<g>
</g>
<g>
</g>
</svg>
