<svg id="Layer_3" enable-background="new 0 0 64 64" height="512" viewBox="0 0 64 64" width="512" xmlns="http://www.w3.org/2000/svg"><g><g fill="#efbe9a"><path d="m23 16h-2c-1.105 0-2 .895-2 2 0 1.105.895 2 2 2h2.055"/><path d="m41 16h2c1.105 0 2 .895 2 2 0 1.105-.895 2-2 2h-2.055"/><path d="m58 38h2c1.105 0 2 .895 2 2 0 1.105-.895 2-2 2h-2.055"/><path d="m40 38h-2c-1.105 0-2 .895-2 2 0 1.105.895 2 2 2h2.055"/><path d="m24 38h2c1.105 0 2 .895 2 2 0 1.105-.895 2-2 2l-2.054-.006"/><path d="m6 38h-2c-1.105 0-2 .895-2 2 0 1.105.895 2 2 2h2.055"/></g><path d="m19 53 9.709 1.494c2.047.315 3.787 1.663 4.603 3.567l1.688 3.939h-32v-7.769l8-1.231" fill="#78b75b"/><path d="m13 55-1 3 2 4h2l2-4-1-3" fill="#d5cec2"/><path d="m45 53-9.709 1.494c-2.047.315-3.787 1.663-4.603 3.567l-1.688 3.939h32v-7.769l-8-1.231" fill="#e47c6e"/><path d="m51 55 1 3-2 4h-2l-2-4 1-3" fill="#d5cec2"/><path d="m45 49v4l4 4 4-4v-4" fill="#fadfb2"/><path d="m36 27v4l1.744.872c-.063.916.116 1.848.54 2.695l1.716 3.433h-2c-1.105 0-2 .895-2 2 0 1.105.895 2 2 2h2.055l-.008-.08c.249 2.451 1.482 4.612 3.297 6.08v-.001h-22.687c1.797-1.454 3.023-3.586 3.289-6.006l.054.007h2c1.105 0 2-.895 2-2 0-1.105-.895-2-2-2h-2l1.15-2.667c.441-1.022.628-2.116.568-3.197l.011-.001 2.271-1.135v-4z" fill="#758190"/><path d="m33 48 1-6-1-3h-2l-1 3 1 6z" fill="#e7e4dd"/><path d="m30 33-1 3 2 3h2l2-3-1-3" fill="#d5cec2"/><path d="m39 11-1.6 1.2c-1.558 1.168-3.453 1.8-5.4 1.8s-3.842-.632-5.4-1.8l-1.6-1.2-2 4v4c0 3.532 2.039 6.58 5 8.053v3.947l4 4 4-4v-3.947c2.961-1.474 5-4.522 5-8.053v-4z" fill="#fadfb2"/><path d="m11 49v4l4 4 4-4v-4" fill="#fadfb2"/><path d="m40 37v4c0 4.971 4.029 9 9 9 4.971 0 9-4.029 9-9v-4l-2-4-1.6 1.2c-1.558 1.168-3.453 1.8-5.4 1.8-1.947 0-3.842-.632-5.4-1.8l-1.6-1.2z" fill="#fadfb2"/><path d="m58 38 1.151-2.667c.902-2.092.743-4.491-.43-6.445-.738-1.229-1.831-2.206-3.136-2.8l-2.79-1.271c-1.183-.538-2.467-.817-3.766-.817-1.966 0-3.879.638-5.452 1.817l-1.731 1.303c-1.393.304-2.619 1.169-3.369 2.419-.92 1.533-.993 3.43-.193 5.029l1.716 3.432v-1l2-4 1.6 1.2c1.558 1.168 3.453 1.8 5.4 1.8 1.947 0 3.842-.632 5.4-1.8l1.6-1.2 2 4z" fill="#c18e59"/><path d="m6 37v4c0 4.971 4.029 9 9 9 4.971 0 9-4.029 9-9v-4l-2-4-1.6 1.2c-1.558 1.168-3.453 1.8-5.4 1.8-1.947 0-3.842-.632-5.4-1.8l-1.6-1.2z" fill="#fadfb2"/><path d="m24 38 1.15-2.667c.902-2.092.743-4.491-.43-6.445-.738-1.229-1.831-2.206-3.136-2.8l-2.79-1.271c-1.182-.538-2.466-.817-3.765-.817-1.966 0-3.879.638-5.452 1.817l-1.731 1.303c-1.393.304-2.619 1.169-3.369 2.419-.92 1.533-.993 3.43-.193 5.029l1.716 3.432v-1l2-4 1.6 1.2c1.558 1.168 3.453 1.8 5.4 1.8 1.947 0 3.842-.632 5.4-1.8l1.6-1.2 2 4z" fill="#c18e59"/><path d="m41 16 1.151-2.667c.902-2.092.743-4.491-.43-6.445-.738-1.229-1.831-2.206-3.136-2.8l-2.79-1.271c-1.183-.538-2.467-.817-3.766-.817-1.966 0-3.879.638-5.452 1.817l-1.731 1.303c-1.393.304-2.619 1.169-3.369 2.419-.92 1.533-.993 3.43-.193 5.029l1.716 3.432v-1l2-4 1.6 1.2c1.558 1.168 3.453 1.8 5.4 1.8 1.947 0 3.842-.632 5.4-1.8l1.6-1.2 2 4z" fill="#c18e59"/><path d="m58.798 43h1.202c1.654-.001 3-1.347 3-3.001-.001-1.654-1.347-2.999-3-2.999h-.48l.549-1.271c1.027-2.382.844-5.132-.491-7.356-.846-1.409-2.083-2.514-3.579-3.195l-2.791-1.271c-3.294-1.5-7.335-1.062-10.231 1.11l-1.577 1.183.002.003c-1.561.407-2.937 1.411-3.783 2.822-.261.435-.461.893-.607 1.364l-.012-.006v-2.736c2.43-1.411 4.22-3.808 4.799-6.647h1.201c1.654-.001 3-1.347 3-3 0-1.654-1.346-3-3-3h-.48l.549-1.271c1.027-2.382.844-5.132-.491-7.356-.846-1.409-2.083-2.514-3.579-3.195l-2.791-1.271c-3.294-1.5-7.335-1.062-10.231 1.11l-1.577 1.182.002.003c-1.561.407-2.938 1.411-3.784 2.822-1.102 1.835-1.188 4.075-.23 5.99l.994 1.986h-.382c-.802 0-1.555.312-2.122.878-.566.567-.878 1.321-.878 2.122 0 1.653 1.345 2.999 3 3h1.202c.579 2.839 2.368 5.236 4.799 6.647v2.735l-.511.256c-.19-.788-.485-1.555-.911-2.265-.846-1.409-2.083-2.514-3.579-3.195l-2.791-1.271c-3.294-1.5-7.335-1.062-10.231 1.11l-1.578 1.182.002.003c-1.561.407-2.938 1.411-3.784 2.822-1.102 1.835-1.188 4.075-.23 5.99l.994 1.986h-.382c-.802 0-1.555.312-2.122.878-.566.567-.878 1.321-.878 2.122 0 1.653 1.345 2.999 3 3h1.202c.578 2.838 2.367 5.236 4.798 6.647v2.495l-7.152 1.1c-.488.075-.848.495-.848.988v7.769c0 .553.447 1 1 1h11 2 12.993c.002 0 .004.001.007.001h19 2 11c.266 0 .52-.105.708-.293s.292-.442.292-.707v-7.77c0-.493-.36-.913-.848-.988l-7.152-1.1v-2.494c2.43-1.412 4.22-3.809 4.798-6.648zm-9.798 6c-4.412 0-8-3.589-8-8v-3.765l1.358-2.717.642.482c1.72 1.29 3.851 2 6 2s4.28-.71 6-2l.641-.481 1.359 2.716v3.765c0 4.411-3.589 8-8 8zm-5 3.141-8.861 1.364c-1.169.18-2.241.645-3.147 1.327-.917-.69-1.98-1.15-3.13-1.327l-8.862-1.363v-2.495c.348-.202.68-.425 1-.666v.018h22v-.019c.32.241.653.464 1 .666zm-12.708-16.434c.195.195.451.293.708.293.256 0 .512-.098.707-.293l.856-.856.334 1.001-1.432 2.147h-.929l-1.432-2.147.334-1.001zm4.905-3.491.546.273c.037.863.244 1.722.645 2.524l.994 1.987h-.382c-1.654 0-3 1.346-3 3 0 1.653 1.345 2.999 3 3h1.202c.302 1.48.939 2.835 1.817 4h-6.839l.806-4.836c.027-.161.014-.326-.038-.48l-.845-2.535 1.729-2.593c.171-.257.214-.579.116-.871l-.804-2.413zm2.803 8.784h-1c-.551 0-1-.449-1-1 0-.552.448-1 1-1h1zm-7.974 1.08.694-2.081h.559l.694 2.081-.821 4.92h-.305zm29.973-2.08c0 .267-.104.518-.292.707-.189.189-.44.293-.707.293h-1v-2h1c.551 0 .999.448.999 1zm-21.665-9.947c.76-1.267 2.149-2.053 3.626-2.053 1.568 0 3.023.779 3.894 2.084l.314.471 1.664-1.11-.313-.47c-.902-1.353-2.247-2.302-3.772-2.725 2.264-1.404 5.198-1.631 7.634-.523l2.791 1.271c1.125.513 2.057 1.344 2.692 2.404 1.004 1.674 1.143 3.743.37 5.535l-.068.157-1.271-2.541c-.132-.266-.376-.458-.665-.526-.288-.065-.593-.004-.83.173l-1.599 1.2c-1.377 1.031-3.082 1.6-4.801 1.6s-3.424-.568-4.8-1.6l-1.6-1.2c-.236-.177-.537-.237-.83-.173-.289.068-.532.261-.665.526l-1.356 2.711-.572-1.144c-.65-1.301-.591-2.821.157-4.067zm4.666-12.053c0 .551-.449 1-1 1h-1v-2h1c.551 0 1 .448 1 1zm-21.666-9.947c.76-1.267 2.149-2.053 3.626-2.053 1.568 0 3.023.779 3.894 2.084l.314.471 1.663-1.111-.313-.47c-.902-1.353-2.247-2.302-3.772-2.725 2.264-1.404 5.199-1.63 7.634-.523l2.791 1.271c1.125.513 2.057 1.344 2.692 2.404 1.004 1.674 1.143 3.743.37 5.535l-.068.157-1.27-2.541c-.132-.266-.376-.458-.665-.526-.287-.065-.593-.004-.83.173l-1.6 1.2c-1.376 1.032-3.081 1.601-4.8 1.601s-3.424-.568-4.8-1.6l-1.6-1.2c-.237-.177-.537-.239-.83-.173-.289.068-.532.261-.665.526l-1.356 2.712-.572-1.144c-.65-1.302-.591-2.822.157-4.068zm-1.334 10.947c-.551 0-1-.449-1-1.001 0-.267.104-.518.292-.707.189-.188.44-.292.708-.292h1v2zm3 0v-3.765l1.359-2.717.641.482c1.72 1.29 3.851 2 6 2s4.28-.71 6-2l.642-.481 1.358 2.716v3.765c0 4.411-3.589 8-8 8-4.412 0-8-3.589-8-8zm8 10c1.045 0 2.052-.162 3-.461v2.047l-3 3-3-3v-2.047c.947.299 1.955.461 3 .461zm-4.199 3.216 1.054 1.054-.804 2.413c-.098.292-.055.614.116.871l1.729 2.593-.845 2.535c-.052.155-.065.32-.038.48l.806 4.838h-6.838c.878-1.165 1.516-2.52 1.817-4h1.202c1.654-.001 3-1.347 3-3 0-1.654-1.346-3-3-3h-.48l.549-1.271c.41-.95.618-1.959.647-2.969zm-2.801 6.784h1c.551 0 1 .448 1 1 0 .551-.449 1-1 1h-1zm-19.666-8.947c.76-1.267 2.149-2.053 3.626-2.053 1.568 0 3.023.779 3.894 2.084l.314.471 1.663-1.111-.313-.47c-.902-1.353-2.247-2.302-3.772-2.725 2.265-1.404 5.199-1.631 7.634-.523l2.791 1.271c1.125.513 2.057 1.344 2.692 2.404 1.004 1.674 1.143 3.743.37 5.535l-.068.157-1.27-2.541c-.132-.266-.376-.458-.665-.526-.288-.065-.593-.004-.83.173l-1.6 1.2c-1.376 1.032-3.081 1.601-4.8 1.601s-3.424-.568-4.8-1.6l-1.6-1.2c-.237-.177-.538-.239-.83-.173-.289.068-.532.261-.665.526l-1.355 2.711-.573-1.144c-.65-1.301-.591-2.821.157-4.067zm-2.334 9.946c0-.267.104-.518.292-.707.189-.188.44-.292.708-.292h1v2h-1c-.552 0-1-.449-1-1.001zm4 1.001v-3.765l1.359-2.717.641.482c1.72 1.29 3.851 2 6 2s4.28-.71 6-2l.642-.481 1.358 2.716v3.765c0 4.411-3.589 8-8 8-4.412 0-8-3.589-8-8zm8 10c1.045 0 2.052-.162 3-.461v2.047l-3 3-3-3v-2.047c.948.299 1.955.461 3 .461zm-11 4.088 6.651-1.023 1.205 1.205-.804 2.413c-.084.251-.064.526.054.763l1.276 2.553h-8.382zm10.618 5.911-1.538-3.077.357-1.072.856.856c.195.196.451.294.707.294s.512-.098.707-.293l.856-.856.357 1.072-1.538 3.077h-.764zm13.723 0h-10.723l1.276-2.553c.119-.237.138-.512.054-.763l-.804-2.413 1.205-1.205 9.208 1.417c.731.112 1.411.388 2.015.793-.313.428-.588.889-.803 1.391zm3.266-2.545c.685-1.597 2.118-2.708 3.835-2.972l9.208-1.417 1.206 1.205-.804 2.413c-.084.251-.064.526.054.763l1.276 2.554h-15.866zm17.011 2.546-1.538-3.077.357-1.072.855.855c.195.196.451.294.708.294.256 0 .512-.098.707-.293l.856-.856.357 1.072-1.538 3.077zm11.382 0h-8.382l1.277-2.553c.119-.237.138-.512.054-.763l-.805-2.414 1.205-1.204 6.651 1.022zm-8.001-8.415-3 3-3-3v-2.047c.948.299 1.956.462 3.001.462s2.052-.162 2.999-.461z"/></g></svg>