<svg id="Layer_1" enable-background="new 0 0 512 512" height="512" viewBox="0 0 512 512" width="512" xmlns="http://www.w3.org/2000/svg"><g><g><path d="m460.571 432-27.51-385.14c-.598-8.373-7.565-14.86-15.959-14.86h-287.918c-9.285 0-16.621 7.878-15.959 17.14l27.346 382.86 3.429 48h48l-3.429-48h224l3.429 48h48z" fill="#be5000"/></g><g><path d="m94.898 32c-8.394 0-15.361 6.487-15.959 14.86l-27.51 385.14-3.429 48h64l3.429-48h208l-3.429 48h64l3.429-48 27.347-382.86c.662-9.262-6.674-17.14-15.959-17.14z" fill="#be5000"/></g><g><path d="m94.898 32c-8.394 0-15.361 6.487-15.959 14.86l-27.51 385.14-3.429 48h48l3.429-48h224l-3.429 48h48l3.429-48 27.347-382.86c.662-9.262-6.674-17.14-15.959-17.14z" fill="#faa037"/></g><g><path d="m339.98 80h-207.96c-4.197 0-7.681 3.244-7.98 7.43l-20.571 288c-.331 4.631 3.337 8.57 7.98 8.57h207.959c4.197 0 7.681-3.244 7.98-7.43l20.571-288c.331-4.631-3.337-8.57-7.979-8.57z" fill="#353744"/></g><g><g><circle cx="229.333" cy="120" fill="#87aac8" r="16"/></g><g><path d="m313.333 224h-168c-6.627 0-12-5.373-12-12 0-6.627 5.373-12 12-12h168c6.627 0 12 5.373 12 12 0 6.627-5.372 12-12 12z" fill="#a0c8e1"/></g><g><path d="m233.333 224h-88c-6.627 0-12-5.373-12-12 0-6.627 5.373-12 12-12h88c6.627 0 12 5.373 12 12 0 6.627-5.372 12-12 12z" fill="#bedcf0"/></g><g><path d="m229.333 120c-44.183 0-80 35.817-80 80h160c0-44.183-35.817-80-80-80z" fill="#a0c8e1"/></g><g><path d="m161.446 184.002c-.887 0-1.79-.148-2.673-.462-4.164-1.477-6.343-6.049-4.867-10.214 11.309-31.895 41.621-53.326 75.427-53.326 4.418 0 8 3.582 8 8s-3.582 8-8 8c-27.046 0-51.297 17.149-60.347 42.674-1.163 3.28-4.247 5.328-7.54 5.328z" fill="#bedcf0"/></g><g><path d="m269.333 160c-22.091 0-40 17.909-40 40h80c0-22.091-17.908-40-40-40z" fill="#87aac8"/></g></g><g><g><path d="m228 280h-88c-6.627 0-12-5.373-12-12 0-6.627 5.373-12 12-12h88c6.627 0 12 5.373 12 12 0 6.627-5.373 12-12 12z" fill="#a0c8e1"/></g><g><path d="m268 280h40c6.627 0 12-5.373 12-12 0-6.627-5.373-12-12-12h-40c-6.627 0-12 5.373-12 12 0 6.627 5.373 12 12 12z" fill="#a0c8e1"/></g></g><g><g><path d="m222.667 344h-88c-6.627 0-12-5.373-12-12 0-6.627 5.373-12 12-12h88c6.627 0 12 5.373 12 12 0 6.627-5.373 12-12 12z" fill="#a0c8e1"/></g><g><path d="m262.667 344h40c6.627 0 12-5.373 12-12 0-6.627-5.373-12-12-12h-40c-6.627 0-12 5.373-12 12 0 6.627 5.372 12 12 12z" fill="#a0c8e1"/></g></g></g></svg>