<svg id="Capa_1" enable-background="new 0 0 512 512" height="512" viewBox="0 0 512 512" width="512" xmlns="http://www.w3.org/2000/svg"><g><g><path clip-rule="evenodd" d="m382.022 228.265h129.978v45.153c0 11.164-9.111 20.282-20.266 20.282h-46.753l-27.888 14.087-35.072-14.087v-65.435z" fill="#ffe07d" fill-rule="evenodd"/></g><g><path clip-rule="evenodd" d="m402.288 162.742h89.446c11.155 0 20.266 9.118 20.266 20.282v33.551h-129.978v-33.551c0-11.164 9.111-20.282 20.266-20.282z" fill="#ffe07d" fill-rule="evenodd"/></g><g><path clip-rule="evenodd" d="m382.022 206.463h129.978v31.885h-129.978z" fill="#ff8086" fill-rule="evenodd"/></g><g><path clip-rule="evenodd" d="m484.871 206.463h16.645 10.484v-23.439c0-7.628-4.264-14.291-10.484-17.74-2.92-1.607-6.249-2.543-9.783-2.543h-27.129c11.155 0 20.266 9.118 20.266 20.282v23.44z" fill="#ffc269" fill-rule="evenodd"/></g><g><path clip-rule="evenodd" d="m484.871 238.348h16.645 10.484v-10.083-11.69-10.112h-10.484-16.645v10.112 11.69z" fill="#f76672" fill-rule="evenodd"/></g><g><path clip-rule="evenodd" d="m484.871 238.348v35.071c0 11.164-9.111 20.282-20.266 20.282h27.129c3.533 0 6.862-.906 9.783-2.513 6.22-3.478 10.484-10.141 10.484-17.769v-35.071h-10.484z" fill="#ffc269" fill-rule="evenodd"/></g><g><path clip-rule="evenodd" d="m382.022 293.701h62.96v28.962c0 6.956-5.694 12.625-12.615 12.625h-204.99c0-18.207 0-27.472 13.929-27.472l27.742-.029c17.463-.029 28.91-4.501 35.305-14.087h77.669z" fill="#6f6571" fill-rule="evenodd"/></g><g><path clip-rule="evenodd" d="m252.102 335.289h180.264c10.571 18.412 19.069 40.536 11.739 82.854-12.265-41.734-136.841-25.075-149.631 23.088h-137.454c-5.198-11.778-10.104-23.41-14.397-35.158h38.751c78.378-29.577 53.177-16.396 70.728-70.784z" fill="#ffe07d" fill-rule="evenodd"/></g><g><path clip-rule="evenodd" d="m240.976 222.157c2.687 14.145 6.337 28.086 10.425 39.951l39.625 15.526 44.184-15.526c-1.548-83.614-32.794-123.711-59.368-136.687-9.578-7.293-19.39-10.04-19.39-10.04s-12.907 20.649-13.579 20.649c-4.964 11.807-6.833 27.209-6.512 43.838z" fill="#eceaec" fill-rule="evenodd"/></g><g><path clip-rule="evenodd" d="m335.211 262.108h-83.81c-19.303 2.104-43.044 16.805-43.044 62.338v47.725l19.02 11.329 24.724-11.329v-36.883c0-18.207 0-27.472 13.929-27.472l27.742-.029c17.463-.029 28.91-4.501 35.305-14.087 4.936-7.393 6.834-17.827 6.134-31.592z" fill="#ff8086" fill-rule="evenodd"/></g><g><path clip-rule="evenodd" d="m335.211 262.108c-1.548-83.614-32.794-123.711-59.368-136.687-3.942 2.776-8.323 5.056-13.141 6.751 23.537 17.798 47.132 57.574 48.475 129.936z" fill="#dad8db" fill-rule="evenodd"/></g><g><path clip-rule="evenodd" d="m335.211 262.108h-24.033c.701 13.765-1.197 24.199-6.132 31.593-4.03 6.05-10.104 11.164-18.427 14.087h7.155c17.463-.029 28.91-4.501 35.305-14.087 4.934-7.394 6.832-17.828 6.132-31.593z" fill="#f76672" fill-rule="evenodd"/></g><g><path clip-rule="evenodd" d="m294.474 441.231c0-43.224 34.254-77.652 76.509-77.652 34.371 0 63.456 22.796 73.122 54.564 1.986 6.517 3.154 13.444 3.358 20.633.088 2.806-1.84 2.455-4.468 2.455-49.497 0-99.024-.029-148.521 0z" fill="#ff8086" fill-rule="evenodd"/></g><g><path clip-rule="evenodd" d="m313.718 441.231h116.458c-1.664 31.388-27.099 56.347-58.229 56.347s-56.565-24.959-58.229-56.347z" fill="#6f6571" fill-rule="evenodd"/></g><g><path clip-rule="evenodd" d="m17.988 428.81 100.192 23.059c-6.366 27.677-33.962 44.978-61.616 38.607-27.683-6.371-44.942-33.989-38.576-61.666z" fill="#6f6571" fill-rule="evenodd"/></g><g><path clip-rule="evenodd" d="m10.484 400.724c14.163-20.604 38.751-32.557 64.449-29.985 45.322 9.586 60.069 36.678 63.018 70.463-.058 4.588-.555 9.206-1.548 13.824-.292 1.286-1.139.76-2.541.438l-15.682-3.595-100.192-23.059-7.505-1.724-10.483-2.426c2.015-8.826 5.636-16.892 10.484-23.936z" fill="#eceaec" fill-rule="evenodd"/></g><g><path clip-rule="evenodd" d="m74.845 370.622 40.474-140.048 18.222-8.154 20.383 8.154c-26.778 74.233-19.303 126.049-1.226 175.499 4.322 11.749 9.228 23.38 14.397 35.158h-29.115z" fill="#ff8086" fill-rule="evenodd"/></g><g><path clip-rule="evenodd" d="m200.18 73.546 47.483-10.112c4.818.438 18.602 12.012 18.602 19.26l-10.104 51.378c-4.205 1.257-8.673 1.958-13.287 1.958-25.289 0-45.789-20.545-45.789-45.855 0-5.874 1.08-11.486 3.095-16.629z" fill="#ffece4" fill-rule="evenodd"/></g><g><path clip-rule="evenodd" d="m184.849 73.546c0-32.674 25.873-59.123 57.82-59.123s57.82 26.449 57.82 59.123c0 21.568-8.761 40.74-24.647 51.875-5.665 4.004-12.265 6.956-19.682 8.651v-51.379c0-7.248-3.679-8.709-8.498-9.148h-47.482-15.331z" fill="#ff8086" fill-rule="evenodd"/></g><g><path clip-rule="evenodd" d="m212.416 23.161c8.79-5.553 19.157-8.738 30.253-8.738 31.947 0 57.82 26.449 57.82 59.123 0 21.568-8.761 40.74-24.647 51.875-4.03 2.835-8.498 5.144-13.404 6.839 11.739-11.895 18.105-28.962 18.105-47.784 0-34.135-27.07-61.812-60.448-61.812-2.598 0-5.168.146-7.679.497z" fill="#f76672" fill-rule="evenodd"/></g><g><path clip-rule="evenodd" d="m208.357 372.171h43.745v27.56c0 5.904-3.212 6.342-7.943 6.342h-62.784c-1.257-27.648 15.476-33.902 26.982-33.902z" fill="#6f6571" fill-rule="evenodd"/></g><g><path clip-rule="evenodd" d="m152.698 406.073c-18.076-49.449-25.552-101.266 1.226-175.499h-15.01c-.058 0-.117 0-.175 0h-5.402c-26.778 74.233-19.332 126.049-1.227 175.499 4.293 11.749 9.199 23.38 14.397 35.158h10.513 10.075c-5.169-11.778-10.075-23.41-14.397-35.158z" fill="#f76672" fill-rule="evenodd"/></g><g><path clip-rule="evenodd" d="m137.951 441.202-63.018-70.463c-6.512-.643-12.966-.38-19.186.76l60.565 67.715c-.058 3.945-.438 7.949-1.197 11.953l3.066.701 15.682 3.595c1.402.321 2.249.848 2.541-.438.992-4.617 1.488-9.235 1.547-13.823z" fill="#dad8db" fill-rule="evenodd"/></g><g><path clip-rule="evenodd" d="m432.366 335.289h-180.264v15.869h148.113c12.06 0 17.784 5.202 22.486 15.753 4.059 9.148 4.147 12.129 5.986 23.176 6.921 8.037 12.236 17.565 15.419 28.056 7.329-42.319-1.169-64.442-11.74-82.854z" fill="#ffc269" fill-rule="evenodd"/></g><g><path clip-rule="evenodd" d="m428.686 390.086c-14.017-16.279-34.663-26.507-57.703-26.507-5.782 0-11.389.643-16.791 1.841 34.488 7.803 58.609 38.256 59.66 73.356.058 1.929-.818 2.367-2.219 2.455h18.543 12.82c2.628 0 4.556.351 4.468-2.455-.204-7.189-1.372-14.116-3.358-20.633-.058-.205-.117-.38-.175-.555 0 0 0 0 0-.029-3.213-10.259-8.44-19.582-15.245-27.473z" fill="#f76672" fill-rule="evenodd"/></g><g><path clip-rule="evenodd" d="m115.115 451.167-97.127-22.357c-1.08 4.588-1.46 9.206-1.285 13.707l77.093 17.74 3.037.701c-2.862 12.567-10.133 23-19.799 30.044 19.711-3.478 36.386-18.383 41.146-39.133z" fill="#5d5360" fill-rule="evenodd"/></g><g><path clip-rule="evenodd" d="m411.632 441.231h-97.915c.321 6.137 1.577 12.041 3.592 17.564h68.216 18.543c-.73 13.736-5.986 26.215-14.28 35.947 22.515-7.394 39.072-28.407 40.386-53.512h-18.542z" fill="#5d5360" fill-rule="evenodd"/></g><g><path clip-rule="evenodd" d="m444.981 322.663v-28.962h-39.569v28.962c0 6.956-5.694 12.625-12.615 12.625h39.569c6.921.001 12.615-5.669 12.615-12.625z" fill="#5d5360" fill-rule="evenodd"/></g><g><path clip-rule="evenodd" d="m197.318 85.265h39.014c4.818.438 8.498 1.929 8.498 9.177v41.529c3.913-.175 7.709-.818 11.33-1.9v-51.378c0-7.248-3.679-8.709-8.498-9.148h-47.482c-1.431 3.683-2.424 7.628-2.862 11.72z" fill="#ffddce" fill-rule="evenodd"/></g><g><path clip-rule="evenodd" d="m106.88 186.473 54.637 18.061c2.687 2.396-.35 26.829-2.161 26.04h-44.037-19.478v-40.214c0-7.92 4.118-6.167 11.039-3.887z" fill="#ffe07d" fill-rule="evenodd"/></g><g><path clip-rule="evenodd" d="m186.981 230.574h-4.585-23.04c-14.835 0-15.273-24.608 2.161-26.04l25.464-2.046 6.833 14.467z" fill="#ffece4" fill-rule="evenodd"/></g><g><path clip-rule="evenodd" d="m236.362 179.868 9.14-7.862c22.894-19.727 51.834 13.561 21.23 33.434l-25.756 16.717-12.966 8.417h-41.029v-28.086l25.493-2.075z" fill="#ff8086" fill-rule="evenodd"/></g><g><path clip-rule="evenodd" d="m186.981 230.574v-13.619h-5.461-2.949-4.614-23.04c-.876 0-1.694-.058-2.482-.234-.847 6.78 2.979 13.853 10.922 13.853h23.04z" fill="#ffddce" fill-rule="evenodd"/></g><g><path clip-rule="evenodd" d="m266.732 205.44c18.514-12.041 15.243-28.962 4.702-36.093.847 7.306-2.628 15.694-13.141 22.504l-20.062 13.005-5.665 3.712-12.966 8.388h-32.619v13.619h41.029l12.966-8.417z" fill="#f76672" fill-rule="evenodd"/></g><g><path clip-rule="evenodd" d="m161.517 204.534-21.989-7.248c-7.359 7.891-10.922 23.263-6.191 33.288h20.587 5.432c-7.943 0-11.768-7.073-10.922-13.853.759-5.874 4.994-11.515 13.083-12.187z" fill="#ffc269" fill-rule="evenodd"/></g></g></svg>