<svg height="512" viewBox="0 0 64 64" width="512" xmlns="http://www.w3.org/2000/svg"><g id="website-hamburger-food-menu-hand-menu-restaurant-order"><path d="m3 11h58v42h-58z" fill="#e1ecfd"/><path d="m7 37h28a0 0 0 0 1 0 0 8 8 0 0 1 -8 8h-12a8 8 0 0 1 -8-8 0 0 0 0 1 0 0z" fill="#eb9a43"/><path d="m15 17h12a8 8 0 0 1 8 8v2a0 0 0 0 1 0 0h-28a0 0 0 0 1 0 0v-2a8 8 0 0 1 8-8z" fill="#eb9a43"/><rect fill="#ec455a" height="5" rx="2.5" width="26" x="8" y="32"/><path d="m31.5 27h-21a2.5 2.5 0 0 0 0 5h7.5a2 2 0 0 0 4 0h3v5a2 2 0 0 0 4 0v-5h2.5a2.5 2.5 0 0 0 0-5z" fill="#f6cc4f"/><path d="m50 28h6v4h-6z" fill="#44ffe8"/><path d="m45 28v4h-2-4v-4z" fill="#44ffe8"/><path d="m57 53v1l-3 4v4h-13v-5l-3-4v-8l3-3v-8a2.006 2.006 0 0 1 2-2 2.015 2.015 0 0 1 2 2v7a2.006 2.006 0 0 1 2-2 2.015 2.015 0 0 1 2 2 2.006 2.006 0 0 1 2-2 2.015 2.015 0 0 1 2 2v1a2.015 2.015 0 0 1 2-2 2.006 2.006 0 0 1 2 2z" fill="#f09898"/><path d="m3 3h58v8h-58z" fill="#2488ff"/><path d="m61 2h-58a1 1 0 0 0 -1 1v50a1 1 0 0 0 1 1h34.5l2.5 3.33v4.67h2v-5a.984.984 0 0 0 -.2-.6l-2.8-3.73v-7.26l1-1v3.59h2v-14a1 1 0 0 1 2 0v14h2v-7a1 1 0 0 1 2 0v7h2v-7a1 1 0 0 1 2 0v7h2v-6a1 1 0 0 1 2 0v11.67l-2.8 3.73a.984.984 0 0 0 -.2.6v4h2v-3.67l2.8-3.73a.984.984 0 0 0 .2-.6h3a1 1 0 0 0 1-1v-50a1 1 0 0 0 -1-1zm-17 29h-4v-2h4zm16 21h-2v-10a3.009 3.009 0 0 0 -3-3 2.942 2.942 0 0 0 -1.47.4 2.973 2.973 0 0 0 -4.53-.62 2.974 2.974 0 0 0 -2-.78 3 3 0 0 0 -1 .18v-4.18a2.947 2.947 0 0 0 -.3-1.29 1 1 0 0 0 .3-.71v-4a1 1 0 0 0 -1-1h-6a1 1 0 0 0 -1 1v4a1 1 0 0 0 1 1h1.18a3 3 0 0 0 -.18 1v7.59l-2.71 2.7a1.033 1.033 0 0 0 -.29.71v7h-33v-40h56zm0-42h-56v-6h56z"/><path d="m6 6h2v2h-2z"/><path d="m10 6h2v2h-2z"/><path d="m14 6h2v2h-2z"/><path d="m36 27v-2a9.014 9.014 0 0 0 -9-9h-12a9.014 9.014 0 0 0 -9 9v2a1 1 0 0 0 1 1h.35a3.446 3.446 0 0 0 -.35 1.5 3.5 3.5 0 0 0 1.06 2.5 3.5 3.5 0 0 0 -1.06 2.5 3.446 3.446 0 0 0 .35 1.5h-.35a1 1 0 0 0 -1 1 9.014 9.014 0 0 0 9 9h12a9.014 9.014 0 0 0 9-9 1 1 0 0 0 -1-1h-.35a3.446 3.446 0 0 0 .35-1.5 3.5 3.5 0 0 0 -1.06-2.5 3.5 3.5 0 0 0 1.06-2.5 3.446 3.446 0 0 0 -.35-1.5h.35a1 1 0 0 0 1-1zm-9 17h-12a7.013 7.013 0 0 1 -6.93-6h16.11a2.988 2.988 0 0 0 5.64 0h4.11a7.013 7.013 0 0 1 -6.93 6zm4.5-13h-2.5a1 1 0 0 0 -1 1v5a1 1 0 0 1 -2 0v-5a1 1 0 0 0 -1-1h-3a1 1 0 0 0 -1 1 1 1 0 0 1 -2 0 1 1 0 0 0 -1-1h-7.5a1.5 1.5 0 0 1 0-3h21a1.5 1.5 0 0 1 0 3zm1.5 3.5a1.5 1.5 0 0 1 -1.5 1.5h-1.5v-3h1.5a1.5 1.5 0 0 1 1.5 1.5zm-22.5-1.5h6.67a3 3 0 0 0 5.66 0h1.17v3h-13.5a1.5 1.5 0 0 1 0-3zm23.5-7h-26v-1a7.008 7.008 0 0 1 7-7h12a7.008 7.008 0 0 1 7 7z"/><path d="m13 20h2v2h-2z"/><path d="m16 22h2v2h-2z"/><path d="m56 27h-6a1 1 0 0 0 -1 1v4a1 1 0 0 0 1 1h6a1 1 0 0 0 1-1v-4a1 1 0 0 0 -1-1zm-1 4h-4v-2h4z"/><path d="m38 19h2v2h-2z"/><path d="m42 19h4v2h-4z"/><path d="m38 23h8v2h-8z"/><path d="m49 19h2v2h-2z"/><path d="m53 19h4v2h-4z"/><path d="m49 23h8v2h-8z"/><path d="m20 20h2v2h-2z"/><path d="m23 22h2v2h-2z"/><path d="m27 20h2v2h-2z"/></g></svg>