<svg height="512" viewBox="0 0 64 64" width="512" xmlns="http://www.w3.org/2000/svg"><path d="m10 8 38-5v5z" fill="#047c73"/><path d="m10 8h44v53h-44z" fill="#039791"/><path d="m48.293 19.787-4.95 4.949-1.414-1.414 4.949-4.95-1.414-1.414-4.949 4.95-1.415-1.414 4.949-4.95-1.413-1.414-5.657 5.657a5 5 0 0 0 -.635 6.292l-14.214 14.214 1.414 1.414 14.214-14.214a5 5 0 0 0 6.292-.636l5.657-5.657z" fill="#e6e6e6"/><path d="m40.293 41.707-12.793-12.793-2.793 2.793a1 1 0 0 1 -1.5-.1l-8.275-10.755a4.233 4.233 0 0 1 .361-5.559 1.029 1.029 0 0 1 1.414 0l25 25z" fill="#f2f2f2"/><path d="m17 46h30v11h-30z" fill="#82d1df"/><g fill="#29485a"><path d="m20 49h20v2h-20z"/><path d="m42 49h2v2h-2z"/><path d="m20 52h12v2h-12z"/></g></svg>