<svg height="470pt" viewBox="0 -70 470.272 470" width="470pt" xmlns="http://www.w3.org/2000/svg"><path d="m268.136719 36.640625h56v18.503906h-56zm0 0" fill="#82d9ff"/><path d="m324.136719 59.136719h-56c-2.207031 0-4-1.792969-4-4v-18.503907c0-2.207031 1.792969-4 4-4h56c2.207031 0 4 1.792969 4 4v18.503907c0 2.214843-1.792969 4-4 4zm-52-8h48v-10.503907h-48zm0 0" fill="#63312d"/><path d="m352.136719 63.136719s54.214843 35.078125 57.941406 138.207031v63.792969h-109.941406l21.832031-70.167969c7.183594-23.089844 10.839844-47.128906 10.839844-71.3125v-60.519531zm0 0" fill="#82d9ff"/><path d="m410.070312 269.136719h-109.933593c-1.273438 0-2.472657-.601563-3.214844-1.625-.761719-1.03125-.976563-2.351563-.601563-3.558594l21.832032-70.167969c7.070312-22.714844 10.65625-46.304687 10.65625-70.128906v-60.511719c0-2.207031 1.792968-4 4-4h19.328125c.773437 0 1.519531.222657 2.167969.640625 2.289062 1.480469 56.007812 37.40625 59.765624 141.421875v63.9375c0 2.207031-1.78125 3.992188-4 3.992188zm-104.496093-8h100.503906v-59.800781c-3.324219-92.128907-48.230469-129.015626-55.207031-134.199219h-14.054688v56.511719c0 24.625-3.703125 49.023437-11.015625 72.503906zm0 0" fill="#63312d"/><path d="m82 4.136719h118.136719v107h-118.136719zm0 0" fill="#f9dd9d"/><path d="m200.136719 115.136719h-118.136719c-2.207031 0-4-1.792969-4-4v-107c0-2.207031 1.792969-4 4-4h118.136719c2.207031 0 4 1.792969 4 4v107c0 2.214843-1.792969 4-4 4zm-114.136719-8h110.136719v-99h-110.136719zm0 0" fill="#63312d"/><path d="m50 4.136719h118.136719v107h-118.136719zm0 0" fill="#f9dd9d"/><path d="m66 20.136719h102.136719v-16h-118.136719v107h16zm0 0" fill="#ffeecf"/><path d="m168.136719 115.136719h-118.136719c-2.207031 0-4-1.792969-4-4v-107c0-2.207031 1.792969-4 4-4h118.136719c2.207031 0 4 1.792969 4 4v107c0 2.214843-1.792969 4-4 4zm-114.136719-8h110.136719v-99h-110.136719zm0 0" fill="#63312d"/><path d="m95.902344 4.136719h26.335937v35.664062h-26.335937zm0 0" fill="#f8f3f3"/><path d="m122.238281 43.808594h-26.335937c-2.207032 0-4-1.792969-4-4v-35.664063c0-2.207031 1.792968-4 4-4h26.335937c2.210938 0 4 1.792969 4 4v35.664063c0 2.207031-1.789062 4-4 4zm-22.335937-8h18.335937v-27.664063h-18.335937zm0 0" fill="#63312d"/><path d="m212 241.136719h130.464844v24h-130.464844zm0 0" fill="#82d9ff"/><path d="m342.472656 269.136719h-130.472656c-2.207031 0-4-1.792969-4-4v-24c0-2.207031 1.792969-4 4-4h130.472656c2.207032 0 4 1.792969 4 4v24c0 2.214843-1.792968 4-4 4zm-126.472656-8h122.472656v-16h-122.472656zm0 0" fill="#63312d"/><path d="m452.808594 274.472656c0 28.71875-23.28125 52-52 52s-52-23.28125-52-52 23.28125-52 52-52 52 23.28125 52 52zm0 0" fill="#52b8d9"/><path d="m423.921875 274.472656c0 12.765625-10.347656 23.113282-23.113281 23.113282s-23.113282-10.347657-23.113282-23.113282 10.347657-23.113281 23.113282-23.113281 23.113281 10.347656 23.113281 23.113281zm0 0" fill="#eee"/><path d="m160 274.472656c0 28.71875-23.28125 52-52 52s-52-23.28125-52-52 23.28125-52 52-52 52 23.28125 52 52zm0 0" fill="#52b8d9"/><path d="m131.113281 274.472656c0 12.765625-10.347656 23.113282-23.113281 23.113282s-23.113281-10.347657-23.113281-23.113282 10.347656-23.113281 23.113281-23.113281 23.113281 10.347656 23.113281 23.113281zm0 0" fill="#eee"/><g fill="#63312d"><path d="m400.808594 330.472656c-30.871094 0-56-25.128906-56-56s25.128906-56 56-56 56 25.128906 56 56-25.128906 56-56 56zm0-104c-26.472656 0-48 21.527344-48 48s21.527344 48 48 48 48-21.527344 48-48-21.527344-48-48-48zm0 0"/><path d="m400.808594 301.585938c-14.945313 0-27.113282-12.171876-27.113282-27.121094 0-14.945313 12.167969-27.113282 27.113282-27.113282 14.953125 0 27.121094 12.167969 27.121094 27.113282 0 14.960937-12.167969 27.121094-27.121094 27.121094zm0-46.226563c-10.535156 0-19.113282 8.570313-19.113282 19.113281 0 10.542969 8.570313 19.121094 19.113282 19.121094 10.542968 0 19.121094-8.578125 19.121094-19.121094 0-10.542968-8.585938-19.113281-19.121094-19.113281zm0 0"/><path d="m108 330.472656c-30.871094 0-56-25.128906-56-56s25.128906-56 56-56 56 25.128906 56 56-25.121094 56-56 56zm0-104c-26.472656 0-48 21.527344-48 48s21.527344 48 48 48 48-21.527344 48-48-21.527344-48-48-48zm0 0"/><path d="m108 301.585938c-14.945312 0-27.113281-12.171876-27.113281-27.121094 0-14.945313 12.167969-27.113282 27.113281-27.113282s27.113281 12.167969 27.113281 27.113282c0 14.960937-12.160156 27.121094-27.113281 27.121094zm0-46.226563c-10.535156 0-19.113281 8.570313-19.113281 19.113281 0 10.542969 8.570312 19.121094 19.113281 19.121094s19.113281-8.578125 19.113281-19.121094c0-10.542968-8.570312-19.113281-19.113281-19.113281zm0 0"/></g><path d="m212 265.136719h-200c-4.414062 0-8-3.585938-8-8v-28c0-44.183594 35.816406-80 80-80h80c26.511719 0 48 21.488281 48 48zm0 0" fill="#52b8d9"/><path d="m212 269.136719h-200c-6.617188 0-12-5.382813-12-12v-28c0-46.320313 37.679688-84 84-84h80c28.671875 0 52 23.328125 52 52v68c0 2.214843-1.785156 4-4 4zm-128-116c-41.902344 0-76 34.09375-76 76v28c0 2.199219 1.800781 4 4 4h196v-64c0-24.257813-19.742188-44-44-44zm0 0" fill="#63312d"/><path d="m180 265.136719h-144v-20c0-22.089844 17.910156-40 40-40h64c22.089844 0 40 17.910156 40 40zm0 0" fill="#82d9ff"/><path d="m180 269.136719h-144c-2.207031 0-4-1.792969-4-4v-20c0-24.257813 19.742188-44 44-44h64c24.257812 0 44 19.742187 44 44v20c0 2.214843-1.785156 4-4 4zm-140-8h136v-16c0-19.847657-16.152344-36-36-36h-64c-19.847656 0-36 16.152343-36 36zm0 0" fill="#63312d"/><path d="m466.273438 265.136719h-133.464844c0-35.550781 28.816406-64.367188 64.367187-64.367188h4.71875c35.554688 0 64.378907 28.816407 64.378907 64.367188zm0 0" fill="#82d9ff"/><path d="m466.273438 269.136719h-133.464844c-2.207032 0-4-1.792969-4-4 0-37.703125 30.671875-68.375 68.375-68.375h4.71875c37.699218 0 68.371094 30.671875 68.371094 68.375 0 2.214843-1.792969 4-4 4zm-129.328126-8h125.191407c-2.066407-31.441407-28.289063-56.375-60.234375-56.375h-4.71875c-31.945313.007812-58.183594 24.941406-60.238282 56.375zm0 0" fill="#63312d"/><path d="m377.472656 62.472656h-48c-12.152344 0-22-9.847656-22-22s9.847656-22 22-22h48zm0 0" fill="#eee"/><path d="m377.472656 66.472656h-48c-14.335937 0-26-11.664062-26-26 0-14.335937 11.664063-26 26-26h48c2.207032 0 4 1.792969 4 4v44c0 2.207032-1.792968 4-4 4zm-48-44c-9.921875 0-18 8.078125-18 18 0 9.917969 8.078125 18 18 18h44v-36zm0 0" fill="#63312d"/><path d="m353.640625 18.472656h8v44h-8zm0 0" fill="#63312d"/><path d="m193 149.136719h-135.863281c-10.496094 0-19-8.503907-19-19 0-10.496094 8.503906-19 19-19h135.863281c10.496094 0 19 8.503906 19 19 0 10.496093-8.503906 19-19 19zm0 0" fill="#eee"/><path d="m193 153.136719h-135.863281c-12.679688 0-23-10.320313-23-23 0-12.679688 10.320312-23 23-23h135.863281c12.679688 0 23 10.320312 23 23 0 12.679687-10.320312 23-23 23zm-135.863281-38c-8.273438 0-15 6.726562-15 15 0 8.269531 6.726562 15 15 15h135.863281c8.273438 0 15-6.730469 15-15 0-8.273438-6.726562-15-15-15zm0 0" fill="#63312d"/></svg>